HIERARCHY
ROOT Hips
{
    OFFSET 0.000000 0.000000 0.000000
    CHANNELS 6 Xposition Yposition Zposition Zrotation Xrotation Yrotation
    JOINT Spine
    {
        OFFSET -0.000000 7.236184 0.000000
        CHANNELS 3 Zrotation Xrotation Yrotation
        JOINT Spine1
        {
            OFFSET -0.000000 20.420147 0.000000
            CHANNELS 3 Zrotation Xrotation Yrotation
            JOINT Neck
            {
                OFFSET -0.000000 20.336288 1.848754
                CHANNELS 3 Zrotation Xrotation Yrotation
                JOINT Head
                {
                    OFFSET -0.000000 12.354461 -1.764923
                    CHANNELS 3 Zrotation Xrotation Yrotation
                    End Site
                    {
                        OFFSET -0.000000 22.061537 0.000000
                    }
                }
            }
            JOINT LeftShoulder
            {
                OFFSET 3.573296 18.396038 -0.314103
                CHANNELS 3 Zrotation Xrotation Yrotation
                JOINT LeftArm
                {
                    OFFSET 10.880760 0.000000 0.000000
                    CHANNELS 3 Zrotation Xrotation Yrotation
                    JOINT LeftForeArm
                    {
                        OFFSET 27.185530 0.000000 0.000000
                        CHANNELS 3 Zrotation Xrotation Yrotation
                        JOINT LeftHand
                        {
                            OFFSET 27.825975 0.000000 0.000000
                            CHANNELS 3 Zrotation Xrotation Yrotation
                            End Site
                            {
                                OFFSET 13.236923 0.000000 0.000000
                            }
                        }
                    }
                }
            }
            JOINT RightShoulder
            {
                OFFSET -3.474926 18.396038 -0.314103
                CHANNELS 3 Zrotation Xrotation Yrotation
                JOINT RightArm
                {
                    OFFSET -10.880760 0.000000 0.000000
                    CHANNELS 3 Zrotation Xrotation Yrotation
                    JOINT RightForeArm
                    {
                        OFFSET -27.185530 0.000000 0.000000
                        CHANNELS 3 Zrotation Xrotation Yrotation
                        JOINT RightHand
                        {
                            OFFSET -27.825975 0.000000 0.000000
                            CHANNELS 3 Zrotation Xrotation Yrotation
                            End Site
                            {
                                OFFSET -13.236923 0.000000 0.000000
                            }
                        }
                    }
                }
            }
        }
    }
    JOINT LeftUpLeg
    {
        OFFSET 8.824615 0.000000 0.000000
        CHANNELS 3 Zrotation Xrotation Yrotation
        JOINT LeftLeg
        {
            OFFSET -0.000000 -35.111282 0.000000
            CHANNELS 3 Zrotation Xrotation Yrotation
            JOINT LeftFoot
            {
                OFFSET -0.000000 -42.324711 0.000000
                CHANNELS 3 Zrotation Xrotation Yrotation
                JOINT LeftToeBase
                {
                    OFFSET -0.000000 -5.735999 13.236923
                    CHANNELS 3 Zrotation Xrotation Yrotation
                    End Site
                    {
                        OFFSET -0.000000 0.000000 3.529846
                    }
                }
            }
        }
    }
    JOINT RightUpLeg
    {
        OFFSET -8.824615 0.000000 0.000000
        CHANNELS 3 Zrotation Xrotation Yrotation
        JOINT RightLeg
        {
            OFFSET -0.000000 -35.111282 0.000000
            CHANNELS 3 Zrotation Xrotation Yrotation
            JOINT RightFoot
            {
                OFFSET -0.000000 -42.324711 0.000000
                CHANNELS 3 Zrotation Xrotation Yrotation
                JOINT RightToeBase
                {
                    OFFSET -0.000000 -5.735999 13.236923
                    CHANNELS 3 Zrotation Xrotation Yrotation
                    End Site
                    {
                        OFFSET -0.000000 0.000000 3.529846
                    }
                }
            }
        }
    }
}
MOTION
Frames:    7
Frame Time:    0.008333
8.988454    79.910919    106.300995    2.819841    -8.261700    -168.034576    -1.701952    -11.289257    0.117608    2.470364    5.731849    0.162110    2.841411    5.965286    -4.830102    5.888626    -9.935282    -3.960626    -0.669736    16.971319    -0.286009    -51.490082    37.135368    -35.459888    -0.879918    -4.726248    -12.427455    16.153826    -4.555709    1.880427    6.698178    18.063404    -6.213521    43.943779    41.581371    30.871325    -1.380528    -7.057899    19.406862    -16.398602    -6.398331    -2.970032    7.969190    -25.433764    -3.035573    4.295618    32.384193    -5.576518    -6.906525    -14.158527    -13.110759    -0.984749    -1.166232    1.093872    -13.220735    -2.321971    -6.401164    3.704043    3.959978    -3.989176    11.478446    -4.296176    -9.143116    -0.709210    -0.048644    0.767116
8.778342    79.881615    106.335686    3.019501    -8.297378    -167.971542    -1.685185    -11.226553    0.141322    2.657594    5.631755    0.176399    2.989538    5.829022    -4.897735    5.965609    -9.910328    -4.032669    -0.619640    16.930458    -0.318873    -51.605675    36.972385    -35.284924    -0.946480    -4.551924    -12.198415    15.980736    -4.394996    1.841594    6.746421    18.040777    -6.280862    43.964142    41.338577    30.569027    -1.421806    -7.076432    19.434019    -16.385727    -6.422613    -2.881043    7.875000    -25.774527    -3.090868    4.499995    32.854671    -5.707087    -6.792989    -14.367642    -13.070086    -0.974298    -1.141101    1.082213    -13.258765    -2.584220    -6.504220    3.738969    4.359814    -4.023300    11.716909    -4.216101    -9.011672    -0.702930    -0.201967    0.760484
8.554472    79.861717    106.370209    3.204406    -8.341366    -167.939514    -1.676804    -11.163741    0.166266    2.835093    5.515599    0.193755    3.142057    5.694427    -4.958758    6.050595    -9.868064    -4.097661    -0.557463    16.890944    -0.351719    -51.722168    36.815044    -35.091846    -1.019531    -4.374583    -11.975883    15.817917    -4.230189    1.811929    6.799476    18.021723    -6.353478    44.003239    41.064651    30.267012    -1.456685    -7.087739    19.430145    -16.382685    -6.441099    -2.790459    7.780189    -26.065414    -3.111760    4.685038    33.244476    -5.841215    -6.686831    -14.557686    -13.015587    -0.959156    -1.107048    1.065328    -13.324486    -2.881303    -6.586474    3.771745    4.800078    -4.062072    11.973547    -4.111399    -8.865655    -0.691285    -0.384052    0.748073
8.318098    79.852417    106.404793    3.372942    -8.394454    -167.940506    -1.675794    -11.100662    0.192143    3.000539    5.383304    0.213849    3.296124    5.562901    -5.011826    6.141761    -9.808778    -4.154352    -0.484257    16.853079    -0.382951    -51.838688    36.663723    -34.880272    -1.098390    -4.197838    -11.762094    15.667101    -4.064724    1.792116    6.856093    18.006363    -6.430893    44.063519    40.757954    29.968447    -1.484606    -7.091665    19.394737    -16.390570    -6.453432    -2.700408    7.687540    -26.306374    -3.100154    4.842907    33.552410    -5.968782    -6.589325    -14.725320    -12.950440    -0.939301    -1.066164    1.043196    -13.418736    -3.215414    -6.647872    3.803127    5.282769    -4.104648    12.246405    -3.979574    -8.704878    -0.673985    -0.596589    0.729566
8.070560    79.854614    106.439697    3.524275    -8.457118    -167.975647    -1.680964    -11.037993    0.218367    3.152712    5.236538    0.236708    3.449176    5.435917    -5.055874    6.236348    -9.734259    -4.201913    -0.401919    16.816977    -0.411434    -51.953739    36.518368    -34.650368    -1.182016    -4.025017    -11.559195    15.529594    -3.901813    1.782784    6.914669    17.994652    -6.512264    44.147327    40.416801    29.675665    -1.505606    -7.088461    19.328859    -16.410437    -6.459606    -2.612993    7.599699    -26.498817    -3.059476    4.966214    33.779690    -6.079732    -6.500681    -14.867778    -12.877294    -0.914935    -1.020367    1.016050    -13.541694    -3.588469    -6.690063    3.834312    5.810636    -4.147974    12.532592    -3.819121    -8.530645    -0.650616    -0.840202    0.704509
7.811536    79.869041    106.475426    3.659205    -8.529881    -168.045868    -1.690817    -10.975515    0.245273    3.292053    5.075707    0.261851    3.599648    5.313630    -5.090360    6.332231    -9.645085    -4.240052    -0.311770    16.782099    -0.436510    -52.066517    36.378448    -34.400463    -1.269937    -3.858263    -11.367990    15.405566    -3.743561    1.784165    6.973907    17.986460    -6.596927    44.257175    40.038097    29.388014    -1.520523    -7.079339    19.234659    -16.443226    -6.460393    -2.529950    7.518826    -26.645864    -2.993346    5.049027    33.930161    -6.165090    -6.420276    -14.983665    -12.798312    -0.886224    -0.971529    0.984078    -13.693798    -4.004986    -6.715868    3.867021    6.391175    -4.188515    12.830616    -3.627971    -8.343502    -0.620800    -1.118028    0.672484
7.543136    79.896126    106.512138    3.777567    -8.612338    -168.150940    -1.703890    -10.913751    0.272563    3.418507    4.903485    0.288958    3.744366    5.197175    -5.114621    6.426570    -9.543206    -4.268265    -0.216309    16.748503    -0.457592    -52.174980    36.243900    -34.132084    -1.360813    -3.700773    -11.191034    15.296488    -3.593045    1.796233    7.031780    17.981382    -6.683091    44.394310    39.622837    29.106674    -1.530496    -7.066040    19.116388    -16.489468    -6.456945    -2.453719    7.447407    -26.749517    -2.906686    5.085454    34.006733    -6.216068    -6.347674    -15.070825    -12.715610    -0.853716    -0.922200    0.947896    -13.873777    -4.465595    -6.729208    3.902598    7.027977    -4.220666    13.135541    -3.407171    -8.146741    -0.584406    -1.429290    0.633336
